# xmcd
# 
# Track frame offsets:
#     150
#     16352
#     23657
#     41170
#     60743
#     80692
#     92041
#     111772
#     121053
#     132216
#     146355
#     160637
# 
# Disc length: 2263
# 
# Revision: 1
# Processed by: cddbd v1.5.2PL0 Copyright (c) Steve Scherf et al.
# Submitted via: fre:ac v1.0.31
# 
DISCID=9308d50c
DTITLE=Christmas - Home For The Holidays Country Style Disc 1
DYEAR=2002
DGENRE=Christmas
TTITLE0=Toby Keith_-_All I Want For Christmas
TTITLE1=Amy Grant_-_Santas Reindeer Ride
TTITLE2=Mark Wills_-_new Star Rising
TTITLE3=Steve Wariner_-_Do You Hear What I Hear
TTITLE4=Michael McDonald_-_On This Night
TTITLE5=Brenda Lee_-_A Marshmellow World
TTITLE6=Randy Travis_-_Where My Heart Lives
TTITLE7=Aaron Tippin_-_Jingle Bell Rock
TTITLE8=Chely Wright_-_Let It Snow
TTITLE9=Lee Greenwood_-_The Christmas Song
TTITLE10=Rhett Atkins_-_No Room
TTITLE11=Sammy Kershaw_-_Winter Wonderland
EXTD=
EXTT0=
EXTT1=
EXTT2=
EXTT3=
EXTT4=
EXTT5=
EXTT6=
EXTT7=
EXTT8=
EXTT9=
EXTT10=
EXTT11=
PLAYORDER=
